<svg width="2948" height="1658" viewBox="0 0 2948 1658" fill="none" xmlns="http://www.w3.org/2000/svg">
<rect width="2948" height="1658" fill="white"/>
<path d="M1017.04 907.562V750.359H1041.46L1042.62 774.291C1045.24 769.882 1048.53 766.103 1052.26 763.003C1056.19 759.903 1060.45 757.093 1064.86 754.961C1069.46 752.83 1074.21 751.182 1079.25 750.214C1084.33 749.245 1089.23 748.76 1093.97 748.76C1105.26 748.76 1114.95 750.553 1122.65 754.331C1130.36 757.916 1136.56 763.003 1141.16 769.543C1145.76 776.083 1149.01 783.64 1150.99 792.457C1152.98 801.323 1153.95 810.818 1153.95 820.943V907.756H1128.56V827.677C1128.56 820.313 1128.08 813.289 1127.26 806.555C1126.43 799.821 1124.64 793.765 1121.83 788.533C1119.21 783.301 1115.29 779.038 1110.35 775.938C1105.46 772.837 1098.72 771.19 1090.39 771.19C1082.2 771.335 1074.98 773.322 1068.78 777.1C1062.58 780.879 1057.5 785.288 1053.72 790.52C1049.11 797.06 1046.01 804.278 1044.37 812.126C1042.72 819.974 1041.9 827.87 1041.9 835.864V907.756H1017V907.562H1017.04Z" fill="black"/>
<path d="M1305.63 750.358V907.562C1305.63 930.476 1299.72 947.868 1287.8 959.979C1275.84 971.945 1258.83 978 1236.69 978C1223.42 977.855 1211.31 976.014 1200.65 972.768C1189.99 969.474 1180.16 963.612 1171.15 955.231L1182.14 935.272C1189.85 941.473 1198.18 946.269 1207.04 949.854C1215.91 953.439 1225.21 955.28 1234.9 955.28C1243.09 955.28 1249.97 953.972 1255.88 951.501C1261.59 949.03 1266.34 945.591 1270.12 941.037C1273.7 936.628 1276.51 931.203 1278.16 925.002C1279.81 918.801 1280.63 912.212 1280.63 905.042V886.537C1278.02 890.461 1274.72 894.094 1270.99 897.194C1267.07 900.295 1262.95 902.766 1258.4 904.752C1253.99 906.738 1249.24 908.046 1244.15 909.015C1239.07 909.838 1233.98 910.323 1228.75 910.323C1216.78 910.178 1206.95 908.191 1199.1 904.606C1191.25 901.021 1185 896.08 1180.26 889.685C1175.51 883.291 1172.21 875.782 1170.28 866.916C1168.29 858.051 1167.32 848.265 1167.32 837.414V750.504H1192.61V830.244C1192.61 837.462 1193.09 844.487 1193.92 851.366C1194.74 858.39 1196.68 864.446 1199.49 869.872C1202.25 875.297 1206.37 879.512 1211.79 882.806C1217.22 886.101 1224.39 887.699 1233.25 887.699C1242.26 887.699 1249.77 885.713 1256.02 881.983C1262.22 878.204 1267.16 873.456 1270.41 867.74C1274.19 861.83 1276.81 855.144 1277.97 848.071C1279.28 840.853 1279.95 833.49 1279.95 825.981V750.358H1305.63Z" fill="black"/>
<path d="M879.656 909.355C858.389 909.355 840.174 901.507 830.194 885.956C811.204 855.968 831.018 810.285 875.393 781.945C919.962 753.605 969.715 754.913 988.899 784.9C1008.08 814.887 988.221 860.571 943.7 888.911C922.239 902.475 899.47 909.355 879.656 909.355ZM928.925 770.803C911.582 775.55 892.058 787.661 876.168 805.344C847.198 837.317 837.364 879.561 855.24 895.596C872.923 911.631 914.052 897.583 942.877 865.464C971.847 833.345 981.681 791.295 963.853 775.211C955.957 768.041 943.167 766.879 928.925 770.803Z" fill="black"/>
<path d="M974.953 750.358H1000.68V837.317V907.562H973.306L972.821 837.317V781.799L973.645 777.197L974.953 750.358Z" fill="black"/>
<path d="M1439.44 904.316V769.349H1413.71V746.919H1439.44V730.206C1439.44 712.669 1443.21 699.928 1450.72 691.741C1458.28 683.553 1471.07 679.436 1488.9 679.436H1506.72V701.865H1491.51C1480.71 701.865 1473.69 704.481 1470.05 709.907C1466.47 715.333 1464.63 722.987 1464.63 733.161V746.919H1506.72V769.349H1464.82V904.316H1439.44V904.316Z" fill="black"/>
<path d="M1675.75 904.317V747.065H1700.17L1701.33 771.481C1707.05 762.325 1714.41 755.592 1723.42 751.522C1732.43 747.404 1742.61 745.321 1753.9 745.321H1761.94V769.253H1752.59C1743.24 769.253 1735.24 770.706 1728.66 773.855C1722.12 776.956 1716.69 781.073 1712.62 786.451C1708.5 791.683 1705.6 797.932 1703.61 805.102C1701.62 812.32 1700.85 819.829 1700.85 827.871V904.511H1675.8V904.317H1675.75Z" fill="black"/>
<path d="M1805.29 765.909C1810.18 758.885 1816.43 753.798 1823.65 750.359C1830.87 746.919 1839.05 745.272 1848.06 745.272C1859.01 745.417 1867.88 747.888 1874.61 752.49C1881.35 757.092 1886.43 763.148 1889.87 770.657C1895.3 762.615 1901.84 756.414 1909.69 752.006C1917.53 747.597 1926.88 745.272 1937.54 745.272C1946.07 745.272 1953.43 746.725 1959.63 749.535C1965.83 752.49 1970.77 756.414 1974.55 761.501C1978.33 766.588 1981.09 772.498 1982.89 779.183C1984.68 785.917 1985.5 793.281 1985.5 801.274V904.268H1960.12V814.209C1960.12 808.977 1959.78 803.745 1959.29 798.174C1958.81 792.748 1957.5 787.71 1955.51 783.253C1953.58 778.844 1950.62 775.065 1946.5 772.256C1942.58 769.301 1937.15 767.993 1930.47 767.993C1923.93 767.993 1918.36 769.446 1913.76 772.595C1909.15 775.695 1905.57 779.619 1902.76 784.706C1900.14 789.599 1898.2 795.17 1896.85 801.08C1895.69 806.991 1895.06 812.852 1895.06 818.763V904.413H1869.67V814.063C1869.67 809.171 1869.52 803.89 1869.04 798.319C1868.7 792.893 1867.59 787.855 1865.6 783.398C1863.61 778.99 1860.85 775.211 1857.07 772.449C1853.3 769.494 1848.06 768.186 1841.18 768.186C1833.97 768.186 1828.1 769.833 1823.5 772.934C1818.75 776.034 1814.98 780.152 1812.21 785.239C1809.26 790.132 1807.32 795.703 1806.3 801.759C1805.14 807.814 1804.66 813.724 1804.66 819.296V904.607H1779.76V747.404H1804.17L1805.29 765.909Z" fill="black"/>
<path d="M2060.44 768.041C2056.86 768.041 2053.23 768.38 2049.5 768.865C2045.91 769.349 2042.28 770.318 2038.69 771.82C2035.25 773.273 2032.15 775.598 2029.68 778.36C2027.21 781.315 2025.9 785.094 2025.61 789.841C2025.61 796.575 2028.08 801.613 2033.12 805.053C2038.21 808.492 2044.75 810.963 2052.94 812.61C2056.38 813.434 2059.96 814.063 2063.88 814.887C2067.81 815.565 2071.73 816.34 2075.66 817.019C2079.58 817.697 2083.21 818.472 2086.6 819.295C2090.04 820.119 2093 820.943 2095.47 821.766C2114.65 827.676 2124.15 840.611 2124.15 860.231C2124 869.726 2121.87 877.429 2118.09 883.339C2114.17 889.25 2109.42 893.803 2103.51 897.243C2097.6 900.683 2090.92 902.96 2083.55 904.461C2076 905.769 2068.63 906.593 2061.27 906.593C2054.05 906.593 2046.88 905.915 2039.47 904.461C2032.1 903.153 2025.37 900.683 2019.32 897.098C2013.26 893.658 2008.03 889.056 2003.76 883.339C1999.5 877.623 1996.74 870.55 1995.58 862.072H2021.3C2022.95 866.82 2025.42 870.598 2028.86 873.36C2032.3 876.121 2035.88 878.253 2039.81 879.9C2043.73 881.547 2047.36 882.516 2050.76 883.194C2054.2 883.872 2058.12 884.018 2062.58 884.018C2065.68 884.018 2069.46 883.872 2073.52 883.339C2077.79 883 2081.71 882.031 2085.49 880.578C2089.27 879.125 2092.52 876.799 2094.99 873.844C2097.6 870.889 2098.91 866.626 2098.91 861.249C2098.91 855.338 2096.97 850.785 2093 847.829C2089.08 844.874 2083.84 842.597 2076.96 841.289C2072.22 840.32 2067.32 839.303 2062.24 838.528C2057.15 837.704 2052.06 836.542 2047.03 835.573C2041.94 834.41 2037.05 833.102 2032.3 831.649C2027.55 830.196 2022.95 828.064 2018.88 825.593C2013.31 822.154 2008.9 817.551 2005.46 811.835C2002.02 806.119 2000.37 799.046 2000.37 790.713C2000.71 782.041 2002.84 774.678 2006.28 769.107C2009.72 763.536 2014.47 758.788 2020.04 755.203C2025.95 751.618 2032.3 749.148 2039.23 747.646C2045.96 746.338 2053.13 745.514 2060.69 745.514C2076.72 745.514 2089.66 748.954 2099.15 755.978C2104.87 759.902 2109.47 764.65 2112.57 770.221C2115.67 775.792 2117.8 781.702 2118.48 787.903H2094.89C2093.44 782.187 2089.66 777.439 2083.6 773.806C2077.84 770.173 2069.99 768.38 2060.44 768.041Z" fill="black"/>
<path d="M1581.9 907.561C1566.01 907.561 1551.92 903.976 1539.81 896.903C1527.5 889.685 1518.01 880.044 1511.13 867.594C1504.25 855.144 1500.81 841.046 1500.81 825.35C1500.81 809.46 1504.25 795.557 1511.13 783.252C1518.01 770.947 1527.65 761.451 1539.81 754.427C1551.92 747.402 1566.01 743.963 1581.9 743.963C1597.79 743.963 1611.89 747.402 1624 754.427C1636.11 761.451 1645.8 770.947 1652.68 783.252C1659.56 795.557 1663 809.46 1663 825.35C1663 841.24 1659.56 855.337 1652.68 867.594C1645.8 880.044 1636.16 889.685 1624 896.903C1611.89 903.976 1597.79 907.561 1581.9 907.561ZM1581.9 900.536C1592.71 900.536 1602.2 897.436 1610.39 891.186C1618.58 884.986 1624.97 876.12 1629.72 864.832C1634.32 853.545 1636.74 840.271 1636.74 825.205C1636.74 810.138 1634.47 797.058 1629.72 785.916C1625.12 774.774 1618.58 766.247 1610.39 760.192C1602.2 754.136 1592.71 751.181 1581.9 751.181C1571.25 751.181 1561.75 754.136 1553.56 760.192C1545.38 766.247 1538.84 774.774 1534.23 785.916C1529.63 797.058 1527.21 810.138 1527.21 825.205C1527.21 840.271 1529.49 853.545 1534.23 864.832C1538.84 876.12 1545.38 884.986 1553.56 891.186C1561.75 897.436 1571.25 900.536 1581.9 900.536Z" fill="black"/>
</svg>
