<svg width="48" height="48" viewBox="0 0 48 48" fill="none" xmlns="http://www.w3.org/2000/svg">
<path opacity="0.4" d="M10.3193 17.5884L10.2197 15.3569L41.8865 47.0237L47.0235 41.8866L15.3567 10.2198L17.5883 10.3195C21.5803 10.4986 25.6963 10.1459 29.8247 9.25612C33.8666 8.39464 37.6614 7.08925 41.1142 5.36815L37.2844 1.53833C33.6868 2.6965 29.7345 3.38515 25.8194 3.53705C16.5396 3.90828 14.2291 3.39703 5.46987 0.275558L0.275413 5.47002C3.39846 13.1476 3.90814 16.5398 3.53691 25.8195C3.38507 29.7429 2.69642 33.6952 1.53818 37.2846L5.368 41.1144C7.08911 37.6615 8.39866 33.8709 9.26014 29.829C10.1457 25.6964 10.4985 21.5804 10.3193 17.5884Z" fill="#999999"/>
</svg>
