<svg width="1710" height="391" viewBox="0 0 1710 391" fill="none" xmlns="http://www.w3.org/2000/svg">
<path d="M398.04 275.126V117.923H422.46L423.62 141.855C426.24 137.446 429.53 133.667 433.26 130.567C437.19 127.467 441.45 124.657 445.86 122.525C450.46 120.394 455.21 118.746 460.25 117.778C465.33 116.809 470.23 116.324 474.97 116.324C486.26 116.324 495.95 118.117 503.65 121.895C511.36 125.48 517.56 130.567 522.16 137.107C526.76 143.647 530.01 151.204 531.99 160.021C533.98 168.887 534.95 178.382 534.95 188.507V275.32H509.56V195.241C509.56 187.877 509.08 180.853 508.26 174.119C507.43 167.385 505.64 161.329 502.83 156.097C500.21 150.865 496.29 146.602 491.35 143.502C486.46 140.401 479.72 138.754 471.39 138.754C463.2 138.899 455.98 140.886 449.78 144.664C443.58 148.443 438.5 152.852 434.72 158.084C430.11 164.624 427.01 171.842 425.37 179.69C423.72 187.538 422.9 195.434 422.9 203.428V275.32H398V275.126H398.04Z" fill="black"/>
<path d="M686.63 117.922V275.126C686.63 298.04 680.72 315.432 668.8 327.543C656.84 339.509 639.83 345.564 617.69 345.564C604.42 345.419 592.31 343.578 581.65 340.332C570.99 337.038 561.16 331.176 552.15 322.795L563.14 302.836C570.85 309.037 579.18 313.833 588.04 317.418C596.91 321.003 606.21 322.844 615.9 322.844C624.09 322.844 630.97 321.536 636.88 319.065C642.59 316.594 647.34 313.155 651.12 308.601C654.7 304.192 657.51 298.767 659.16 292.566C660.81 286.365 661.63 279.776 661.63 272.606V254.101C659.02 258.025 655.72 261.658 651.99 264.758C648.07 267.859 643.95 270.33 639.4 272.316C634.99 274.302 630.24 275.61 625.15 276.579C620.07 277.402 614.98 277.887 609.75 277.887C597.78 277.742 587.95 275.755 580.1 272.17C572.25 268.585 566 263.644 561.26 257.249C556.51 250.855 553.21 243.346 551.28 234.48C549.29 225.615 548.32 215.829 548.32 204.978V118.068H573.61V197.808C573.61 205.026 574.09 212.051 574.92 218.93C575.74 225.954 577.68 232.01 580.49 237.436C583.25 242.861 587.37 247.076 592.79 250.37C598.22 253.665 605.39 255.263 614.25 255.263C623.26 255.263 630.77 253.277 637.02 249.547C643.22 245.768 648.16 241.02 651.41 235.304C655.19 229.394 657.81 222.708 658.97 215.635C660.28 208.417 660.95 201.054 660.95 193.545V117.922H686.63Z" fill="black"/>
<path d="M260.656 276.919C239.389 276.919 221.174 269.071 211.194 253.52C192.204 223.532 212.018 177.849 256.393 149.509C300.962 121.169 350.715 122.477 369.899 152.464C389.08 182.451 369.221 228.135 324.7 256.475C303.239 270.039 280.47 276.919 260.656 276.919ZM309.925 138.367C292.582 143.114 273.058 155.225 257.168 172.908C228.198 204.881 218.364 247.125 236.24 263.16C253.923 279.195 295.052 265.147 323.877 233.028C352.847 200.909 362.681 158.859 344.853 142.775C336.957 135.605 324.167 134.443 309.925 138.367Z" fill="black"/>
<path d="M355.953 117.922H381.68V204.881V275.126H354.306L353.821 204.881V149.363L354.645 144.761L355.953 117.922Z" fill="black"/>
<path d="M820.44 271.88V136.913H794.71V114.483H820.44V97.77C820.44 80.233 824.21 67.4921 831.72 59.3051C839.28 51.1171 852.07 47 869.9 47H887.72V69.429H872.51C861.71 69.429 854.69 72.045 851.05 77.471C847.47 82.897 845.63 90.551 845.63 100.725V114.483H887.72V136.913H845.82V271.88H820.44Z" fill="black"/>
<path d="M1056.75 271.881V114.629H1081.17L1082.33 139.045C1088.05 129.889 1095.41 123.156 1104.42 119.086C1113.43 114.968 1123.61 112.885 1134.9 112.885H1142.94V136.817H1133.59C1124.24 136.817 1116.24 138.27 1109.66 141.419C1103.12 144.52 1097.69 148.637 1093.62 154.015C1089.5 159.247 1086.6 165.496 1084.61 172.666C1082.62 179.884 1081.85 187.393 1081.85 195.435V272.075H1056.8V271.881H1056.75Z" fill="black"/>
<path d="M1186.29 133.473C1191.18 126.449 1197.43 121.362 1204.65 117.923C1211.87 114.483 1220.05 112.836 1229.06 112.836C1240.01 112.981 1248.88 115.452 1255.61 120.054C1262.35 124.656 1267.43 130.712 1270.87 138.221C1276.3 130.179 1282.84 123.978 1290.69 119.57C1298.53 115.161 1307.88 112.836 1318.54 112.836C1327.07 112.836 1334.43 114.289 1340.63 117.099C1346.83 120.054 1351.77 123.978 1355.55 129.065C1359.33 134.152 1362.09 140.062 1363.89 146.747C1365.68 153.481 1366.5 160.845 1366.5 168.838V271.832H1341.12V181.773C1341.12 176.541 1340.78 171.309 1340.29 165.738C1339.81 160.312 1338.5 155.274 1336.51 150.817C1334.58 146.408 1331.62 142.629 1327.5 139.82C1323.58 136.865 1318.15 135.557 1311.47 135.557C1304.93 135.557 1299.36 137.01 1294.76 140.159C1290.15 143.259 1286.57 147.183 1283.76 152.27C1281.14 157.163 1279.2 162.734 1277.85 168.644C1276.69 174.555 1276.06 180.416 1276.06 186.327V271.977H1250.67V181.627C1250.67 176.735 1250.52 171.454 1250.04 165.883C1249.7 160.457 1248.59 155.419 1246.6 150.962C1244.61 146.554 1241.85 142.775 1238.07 140.013C1234.3 137.058 1229.06 135.75 1222.18 135.75C1214.97 135.75 1209.1 137.397 1204.5 140.498C1199.75 143.598 1195.98 147.716 1193.21 152.803C1190.26 157.696 1188.32 163.267 1187.3 169.323C1186.14 175.378 1185.66 181.288 1185.66 186.86V272.171H1160.76V114.968H1185.17L1186.29 133.473Z" fill="black"/>
<path d="M1441.44 135.605C1437.86 135.605 1434.23 135.944 1430.5 136.429C1426.91 136.913 1423.28 137.882 1419.69 139.384C1416.25 140.837 1413.15 143.162 1410.68 145.924C1408.21 148.879 1406.9 152.658 1406.61 157.405C1406.61 164.139 1409.08 169.177 1414.12 172.617C1419.21 176.056 1425.75 178.527 1433.94 180.174C1437.38 180.998 1440.96 181.627 1444.88 182.451C1448.81 183.129 1452.73 183.904 1456.66 184.583C1460.58 185.261 1464.21 186.036 1467.6 186.859C1471.04 187.683 1474 188.507 1476.47 189.33C1495.65 195.24 1505.15 208.175 1505.15 227.795C1505 237.29 1502.87 244.993 1499.09 250.903C1495.17 256.814 1490.42 261.367 1484.51 264.807C1478.6 268.247 1471.92 270.524 1464.55 272.025C1457 273.333 1449.63 274.157 1442.27 274.157C1435.05 274.157 1427.88 273.479 1420.47 272.025C1413.1 270.717 1406.37 268.247 1400.32 264.662C1394.26 261.222 1389.03 256.62 1384.76 250.903C1380.5 245.187 1377.74 238.114 1376.58 229.636H1402.3C1403.95 234.384 1406.42 238.162 1409.86 240.924C1413.3 243.685 1416.88 245.817 1420.81 247.464C1424.73 249.111 1428.36 250.08 1431.76 250.758C1435.2 251.436 1439.12 251.582 1443.58 251.582C1446.68 251.582 1450.46 251.436 1454.52 250.903C1458.79 250.564 1462.71 249.595 1466.49 248.142C1470.27 246.689 1473.52 244.363 1475.99 241.408C1478.6 238.453 1479.91 234.19 1479.91 228.813C1479.91 222.902 1477.97 218.349 1474 215.393C1470.08 212.438 1464.84 210.161 1457.96 208.853C1453.22 207.884 1448.32 206.867 1443.24 206.092C1438.15 205.268 1433.06 204.106 1428.03 203.137C1422.94 201.974 1418.05 200.666 1413.3 199.213C1408.55 197.76 1403.95 195.628 1399.88 193.157C1394.31 189.718 1389.9 185.115 1386.46 179.399C1383.02 173.683 1381.37 166.61 1381.37 158.277C1381.71 149.605 1383.84 142.242 1387.28 136.671C1390.72 131.1 1395.47 126.352 1401.04 122.767C1406.95 119.182 1413.3 116.712 1420.23 115.21C1426.96 113.902 1434.13 113.078 1441.69 113.078C1457.72 113.078 1470.66 116.518 1480.15 123.542C1485.87 127.466 1490.47 132.214 1493.57 137.785C1496.67 143.356 1498.8 149.266 1499.48 155.467H1475.89C1474.44 149.751 1470.66 145.003 1464.6 141.37C1458.84 137.737 1450.99 135.944 1441.44 135.605Z" fill="black"/>
<path d="M962.9 275.125C947.01 275.125 932.92 271.54 920.81 264.467C908.5 257.249 899.01 247.608 892.13 235.158C885.25 222.708 881.81 208.61 881.81 192.914C881.81 177.024 885.25 163.121 892.13 150.816C899.01 138.511 908.65 129.015 920.81 121.991C932.92 114.966 947.01 111.527 962.9 111.527C978.79 111.527 992.89 114.966 1005 121.991C1017.11 129.015 1026.8 138.511 1033.68 150.816C1040.56 163.121 1044 177.024 1044 192.914C1044 208.804 1040.56 222.901 1033.68 235.158C1026.8 247.608 1017.16 257.249 1005 264.467C992.89 271.54 978.79 275.125 962.9 275.125ZM962.9 268.1C973.71 268.1 983.2 265 991.39 258.75C999.58 252.55 1005.97 243.684 1010.72 232.396C1015.32 221.109 1017.74 207.835 1017.74 192.769C1017.74 177.702 1015.47 164.622 1010.72 153.48C1006.12 142.338 999.58 133.811 991.39 127.756C983.2 121.7 973.71 118.745 962.9 118.745C952.25 118.745 942.75 121.7 934.56 127.756C926.38 133.811 919.84 142.338 915.23 153.48C910.63 164.622 908.21 177.702 908.21 192.769C908.21 207.835 910.49 221.109 915.23 232.396C919.84 243.684 926.38 252.55 934.56 258.75C942.75 265 952.25 268.1 962.9 268.1Z" fill="black"/>
</svg>
