<svg width="2948" height="1658" viewBox="0 0 2948 1658" fill="none" xmlns="http://www.w3.org/2000/svg">
<rect width="2948" height="1658" fill="white"/>
<path d="M1284.32 772.483V588.893H1312.89L1314.27 616.772C1317.27 611.647 1321.08 607.271 1325.58 603.521C1330.08 599.832 1335.02 596.645 1340.4 594.144C1345.71 591.581 1351.4 589.706 1357.28 588.581C1363.22 587.393 1368.97 586.831 1374.53 586.831C1387.79 586.831 1398.92 588.956 1407.98 593.269C1417.05 597.582 1424.24 603.458 1429.55 611.022C1434.86 618.585 1438.74 627.524 1441.05 637.838C1443.37 648.152 1444.55 659.279 1444.55 671.093V772.483H1414.92V679.157C1414.92 670.593 1414.42 662.342 1413.36 654.403C1412.29 646.527 1410.23 639.463 1407.11 633.337C1403.98 627.211 1399.48 622.273 1393.66 618.523C1387.85 614.835 1380.1 612.959 1370.34 612.959C1360.84 613.209 1352.4 615.522 1345.09 619.898C1337.77 624.336 1331.96 629.587 1327.52 635.588C1322.14 643.276 1318.58 651.653 1316.7 660.841C1314.83 670.03 1313.89 679.219 1313.89 688.533V772.483H1284.32Z" fill="black"/>
<path d="M1621.17 588.895V772.484C1621.17 799.176 1614.23 819.554 1600.29 833.618C1586.35 847.683 1566.47 854.684 1540.71 854.684C1525.14 854.434 1511.14 852.434 1498.76 848.558C1486.32 844.745 1474.88 837.932 1464.44 828.18L1477.32 804.864C1486.38 812.053 1496.07 817.741 1506.39 821.929C1516.7 826.117 1527.58 828.18 1538.96 828.18C1548.46 828.18 1556.59 826.742 1563.34 823.804C1570.09 820.929 1575.59 816.866 1579.91 811.615C1584.22 806.364 1587.35 800.176 1589.29 792.987C1591.29 785.799 1592.22 777.985 1592.22 769.672V747.731C1589.22 752.356 1585.41 756.482 1580.91 760.108C1576.41 763.733 1571.53 766.609 1566.28 768.796C1561.03 770.984 1555.46 772.609 1549.59 773.672C1543.65 774.735 1537.71 775.235 1531.64 775.235C1517.7 774.985 1506.14 772.797 1497.01 768.609C1487.82 764.421 1480.5 758.607 1475.07 751.169C1469.63 743.73 1465.69 734.854 1463.37 724.54C1461.06 714.226 1459.87 702.787 1459.87 690.222V588.895H1489.51V681.909C1489.51 690.285 1490.01 698.536 1491.07 706.662C1492.13 714.788 1494.26 721.977 1497.51 728.29C1500.76 734.541 1505.51 739.605 1511.76 743.418C1518.02 747.231 1526.39 749.169 1536.83 749.169C1547.27 749.169 1556.15 746.981 1563.47 742.543C1570.78 738.104 1576.41 732.541 1580.35 725.853C1584.79 718.914 1587.72 711.225 1589.22 702.849C1590.72 694.473 1591.47 685.909 1591.47 677.095V588.895H1621.17Z" fill="black"/>
<path d="M1088.89 1067.4V909.943H1058.88V883.814H1088.83V864.311C1088.83 843.87 1093.26 828.931 1102.08 819.367C1110.89 809.865 1125.77 805.115 1146.65 805.115H1167.54V831.244H1149.78C1137.21 831.244 1128.9 834.369 1124.71 840.62C1120.52 846.871 1118.46 855.935 1118.46 867.811V883.814H1167.6V909.943H1118.46V1067.4H1088.89Z" fill="black"/>
<path d="M1364.72 1067.34V883.812H1393.29L1394.66 912.379C1401.42 901.69 1409.98 893.939 1420.42 889.063C1430.86 884.187 1442.74 881.75 1455.93 881.75H1465.31V909.629H1454.49C1443.55 909.629 1434.3 911.441 1426.61 915.004C1418.92 918.63 1412.73 923.506 1407.98 929.632C1403.23 935.757 1399.73 943.071 1397.54 951.385C1395.35 959.761 1394.23 968.575 1394.23 977.826V1067.34H1364.72Z" fill="black"/>
<path d="M1515.95 905.754C1521.77 897.627 1528.89 891.564 1537.4 887.626C1545.9 883.688 1555.34 881.688 1565.78 881.688C1578.53 881.938 1588.91 884.688 1596.79 890.064C1604.67 895.44 1610.61 902.503 1614.54 911.317C1620.8 902.003 1628.55 894.752 1637.74 889.564C1646.93 884.313 1657.74 881.75 1670.31 881.75C1680.31 881.75 1688.88 883.438 1696.07 886.813C1703.26 890.189 1709.07 894.814 1713.51 900.753C1717.95 906.691 1721.2 913.567 1723.26 921.506C1725.33 929.382 1726.39 938.008 1726.39 947.26V1067.4H1696.76V962.199C1696.76 956.136 1696.44 949.948 1695.88 943.572C1695.32 937.196 1693.82 931.382 1691.5 926.131C1689.19 920.881 1685.69 916.63 1681.06 913.255C1676.44 909.879 1670.12 908.191 1662.25 908.191C1654.56 908.191 1648.05 910.004 1642.74 913.567C1637.43 917.193 1633.17 921.881 1630.05 927.694C1626.92 933.508 1624.67 939.884 1623.23 946.822C1621.86 953.761 1621.17 960.637 1621.17 967.388V1067.34H1591.54V961.824C1591.54 956.011 1591.29 949.947 1590.85 943.509C1590.41 937.133 1589.04 931.32 1586.85 926.069C1584.66 920.818 1581.35 916.568 1576.91 913.192C1572.47 909.817 1566.34 908.129 1558.46 908.129C1550.09 908.129 1543.21 910.004 1537.71 913.692C1532.27 917.38 1527.83 922.193 1524.45 927.944C1521.08 933.758 1518.77 940.196 1517.52 947.26C1516.26 954.323 1515.58 961.137 1515.58 967.638V1067.28H1485.94V883.813H1514.51L1515.95 905.754Z" fill="black"/>
<path d="M1813.66 908.378C1809.48 908.378 1805.22 908.69 1800.97 909.253C1796.66 909.816 1792.47 911.003 1788.41 912.754C1784.34 914.504 1780.84 917.067 1777.97 920.442C1775.09 923.818 1773.47 928.256 1773.28 933.882C1773.28 941.758 1776.22 947.696 1782.16 951.634C1788.09 955.572 1795.78 958.51 1805.35 960.323C1809.29 961.261 1813.6 962.136 1818.23 962.948C1822.86 963.761 1827.48 964.574 1831.98 965.386C1836.48 966.199 1840.8 967.074 1844.86 968.012C1848.93 968.949 1852.36 969.887 1855.11 970.825C1877.43 977.763 1888.56 992.765 1888.56 1015.77C1888.31 1026.9 1885.94 1035.9 1881.44 1042.77C1876.93 1049.65 1871.24 1055.02 1864.37 1058.96C1857.49 1062.9 1849.74 1065.71 1841.05 1067.34C1832.36 1068.96 1823.67 1069.78 1815.1 1069.78C1806.73 1069.78 1798.29 1068.96 1789.66 1067.34C1781.09 1065.71 1773.22 1062.9 1766.15 1058.77C1759.09 1054.71 1753.02 1049.4 1748.02 1042.77C1743.02 1036.15 1739.83 1027.83 1738.46 1017.89H1768.4C1770.28 1023.46 1773.15 1027.9 1777.09 1031.15C1781.03 1034.4 1785.28 1036.96 1789.78 1038.83C1794.28 1040.71 1798.6 1041.96 1802.66 1042.65C1806.73 1043.34 1811.29 1043.71 1816.42 1043.71C1820.1 1043.71 1824.42 1043.46 1829.29 1043.02C1834.17 1042.59 1838.8 1041.46 1843.24 1039.71C1847.68 1037.96 1851.36 1035.33 1854.36 1031.9C1857.37 1028.4 1858.87 1023.52 1858.87 1017.27C1858.87 1010.33 1856.62 1005.08 1852.05 1001.58C1847.55 998.079 1841.3 995.516 1833.42 993.89C1827.86 992.703 1822.1 991.64 1816.17 990.577C1810.23 989.515 1804.35 988.39 1798.41 987.077C1792.47 985.827 1786.72 984.264 1781.16 982.576C1775.59 980.826 1770.34 978.451 1765.46 975.45C1758.96 971.512 1753.71 966.136 1749.77 959.448C1745.83 952.697 1743.83 944.446 1743.83 934.694C1744.27 924.505 1746.65 916.066 1750.77 909.441C1754.9 902.815 1760.27 897.439 1766.78 893.251C1773.72 889.063 1781.16 886.187 1789.1 884.562C1796.97 882.937 1805.35 882.124 1814.17 882.124C1832.98 882.124 1847.99 886.187 1859.12 894.313C1865.87 898.939 1871.06 904.565 1874.81 911.003C1878.5 917.504 1880.87 924.38 1881.75 931.569H1854.24C1852.61 924.818 1848.18 919.379 1840.99 915.191C1833.98 910.816 1824.79 908.565 1813.66 908.378Z" fill="black"/>
<path d="M1124.02 774.484C1099.08 774.484 1077.95 765.358 1066.38 747.23C1044.06 712.225 1067.26 658.905 1119.15 625.775C1171.04 592.645 1229.18 594.145 1251.5 629.15C1273.82 664.156 1250.62 717.476 1198.73 750.606C1173.72 766.546 1147.22 774.484 1124.02 774.484ZM1181.48 612.773C1161.28 618.336 1138.53 632.526 1119.96 653.029C1086.2 690.472 1074.76 739.729 1095.45 758.419C1116.21 777.11 1164.03 760.732 1197.79 723.289C1231.62 685.846 1243.06 636.652 1222.3 617.899C1212.99 609.46 1198.11 608.21 1181.48 612.773Z" fill="black"/>
<path d="M1235.3 588.895H1265.25V690.41V772.422H1233.36L1232.8 690.41V625.588L1233.8 620.337L1235.3 588.895Z" fill="black"/>
<path d="M1255.18 1071.09C1236.62 1071.09 1220.17 1066.97 1205.98 1058.65C1191.73 1050.34 1180.6 1038.96 1172.53 1024.52C1164.47 1010.08 1160.41 993.58 1160.41 975.14C1160.41 956.7 1164.41 940.322 1172.53 926.008C1180.6 911.756 1191.73 900.504 1205.98 892.378C1220.17 884.252 1236.62 880.188 1255.18 880.188C1273.75 880.188 1290.19 884.252 1304.39 892.378C1318.64 900.504 1329.77 911.693 1337.83 926.008C1345.9 940.26 1349.96 956.637 1349.96 975.14C1349.96 993.58 1345.9 1010.08 1337.83 1024.52C1329.77 1038.96 1318.64 1050.34 1304.39 1058.65C1290.13 1066.97 1273.75 1071.09 1255.18 1071.09ZM1255.18 1062.78C1267.75 1062.78 1278.82 1059.15 1288.38 1051.9C1297.95 1044.65 1305.45 1034.4 1310.89 1021.21C1316.33 1008.02 1319.01 992.58 1319.01 974.952C1319.01 957.325 1316.33 942.01 1310.89 929.008C1305.45 916.069 1297.95 906.005 1288.38 899.004C1278.82 891.94 1267.75 888.44 1255.18 888.44C1242.74 888.44 1231.68 891.94 1222.05 899.004C1212.42 906.067 1204.86 916.069 1199.48 929.008C1194.04 942.01 1191.35 957.262 1191.35 974.952C1191.35 992.58 1194.04 1008.02 1199.48 1021.21C1204.92 1034.4 1212.42 1044.65 1222.05 1051.9C1231.68 1059.15 1242.74 1062.78 1255.18 1062.78Z" fill="black"/>
</svg>
