<svg width="2948" height="1658" viewBox="0 0 2948 1658" fill="none" xmlns="http://www.w3.org/2000/svg">
<rect width="2948" height="1658" fill="white"/>
<path d="M1425.47 1056.91C1365.94 1056.91 1315.31 1035.04 1287.77 991.835C1234.44 908.13 1289.79 780.681 1413.86 701.566C1537.94 622.451 1676.86 625.961 1730.19 709.532C1783.52 793.237 1728.16 920.685 1604.09 999.801C1544.28 1037.87 1480.96 1056.91 1425.47 1056.91ZM1556.7 681.855C1509.86 694.681 1457.07 727.623 1414.13 775.281C1335.83 862.092 1309.23 976.309 1357.3 1019.65C1405.36 1063.12 1516.34 1025.05 1594.64 938.237C1672.95 851.426 1699.54 737.208 1651.48 693.871C1629.74 674.294 1595.32 671.324 1556.7 681.855Z" fill="black"/>
<path d="M1691.45 613.271H1763V856.016L1762.86 901.379L1757.73 1051.24H1686.85L1685.5 856.016V700.891L1687.93 688.2L1691.45 613.271Z" fill="black"/>
<path d="M1411.98 1057.18C1367.56 1057.18 1328.4 1047.32 1294.38 1027.48C1260.36 1007.63 1233.76 980.493 1214.46 945.93C1195.15 911.368 1185.57 872.08 1185.57 827.933C1185.57 783.785 1195.15 744.632 1214.46 710.475C1233.76 676.318 1260.36 649.586 1294.38 630.145C1328.27 610.568 1367.56 600.848 1411.98 600.848C1456.39 600.848 1495.55 610.568 1529.57 630.01C1563.59 649.451 1590.19 676.183 1609.49 710.34C1628.8 744.497 1638.39 783.65 1638.39 827.798C1638.39 871.945 1628.8 911.233 1609.49 945.795C1590.19 980.357 1563.59 1007.49 1529.57 1027.34C1495.55 1047.19 1456.39 1057.18 1411.98 1057.18ZM1411.98 1037.33C1441.81 1037.33 1468.14 1028.69 1490.96 1011.41C1513.77 994.128 1531.59 969.827 1544.55 938.37C1557.38 907.048 1563.86 870.325 1563.86 828.338C1563.86 786.35 1557.38 750.032 1544.55 719.115C1531.59 688.333 1513.77 664.437 1490.96 647.696C1468.14 630.955 1441.81 622.584 1411.98 622.584C1382.41 622.584 1356.08 630.955 1333.27 647.696C1310.31 664.437 1292.36 688.198 1279.53 719.115C1266.71 750.032 1260.23 786.35 1260.23 828.338C1260.23 870.325 1266.71 906.913 1279.53 938.37C1292.36 969.692 1310.31 994.128 1333.27 1011.41C1356.08 1028.69 1382.41 1037.33 1411.98 1037.33Z" fill="black"/>
</svg>
