<svg width="597" height="209" viewBox="0 0 597 209" fill="none" xmlns="http://www.w3.org/2000/svg">
<g clip-path="url(#clip0_6_26)">
<g clip-path="url(#clip1_6_26)">
<path d="M866 -214H-268V423H866V-214Z" fill="white"/>
<path d="M123.222 134.683V74.2863H132.616L133.062 83.481C134.07 81.787 135.335 80.3351 136.77 79.1441C138.282 77.9531 139.921 76.8735 141.617 76.0544C143.387 75.2357 145.214 74.6025 147.152 74.2306C149.107 73.8583 150.991 73.672 152.815 73.672C157.158 73.672 160.885 74.3609 163.847 75.8124C166.813 77.1897 169.198 79.1441 170.967 81.6568C172.737 84.1694 173.987 87.0728 174.749 90.4603C175.514 93.8666 175.887 97.5145 175.887 101.405V134.758H166.12V103.992C166.12 101.162 165.936 98.4639 165.62 95.8767C165.301 93.2895 164.613 90.9628 163.532 88.9527C162.524 86.9426 161.016 85.3047 159.116 84.1137C157.235 82.9223 154.642 82.2896 151.438 82.2896C148.287 82.3453 145.51 83.1087 143.125 84.5601C140.74 86.012 138.786 87.706 137.332 89.7161C135.559 92.2288 134.366 95.0019 133.735 98.0171C133.101 101.032 132.785 104.066 132.785 107.137V134.758H123.207V134.683H123.222Z" fill="black"/>
<path d="M234.234 74.2859V134.683C234.234 143.487 231.96 150.169 227.375 154.822C222.774 159.419 216.231 161.745 207.715 161.745C202.61 161.69 197.952 160.982 193.851 159.735C189.751 158.47 185.969 156.218 182.503 152.998L186.731 145.329C189.697 147.712 192.901 149.554 196.309 150.932C199.721 152.309 203.299 153.016 207.026 153.016C210.176 153.016 212.823 152.514 215.096 151.565C217.293 150.615 219.12 149.294 220.574 147.544C221.951 145.85 223.032 143.766 223.667 141.384C224.301 139.001 224.617 136.47 224.617 133.715V126.606C223.613 128.113 222.343 129.509 220.909 130.7C219.401 131.891 217.816 132.841 216.066 133.604C214.369 134.367 212.542 134.869 210.584 135.242C208.63 135.558 206.672 135.744 204.66 135.744C200.056 135.688 196.275 134.925 193.255 133.548C190.235 132.17 187.831 130.272 186.008 127.815C184.181 125.358 182.911 122.474 182.169 119.067C181.403 115.661 181.03 111.902 181.03 107.733V74.342H190.758V104.978C190.758 107.751 190.943 110.45 191.262 113.093C191.578 115.792 192.324 118.118 193.405 120.203C194.467 122.287 196.051 123.907 198.136 125.172C200.225 126.438 202.983 127.052 206.391 127.052C209.857 127.052 212.746 126.289 215.15 124.856C217.535 123.404 219.435 121.58 220.686 119.384C222.14 117.113 223.147 114.544 223.594 111.827C224.098 109.054 224.355 106.225 224.355 103.34V74.2859H234.234Z" fill="black"/>
<path d="M70.3751 135.372C62.1944 135.372 55.1876 132.357 51.3487 126.382C44.0438 114.861 51.6656 97.3097 68.7353 86.4216C85.8795 75.5334 105.018 76.0359 112.397 87.5569C119.776 99.0778 112.137 116.63 95.0108 127.518C86.7554 132.729 77.9969 135.372 70.3751 135.372ZM89.3273 82.1408C82.656 83.9646 75.1458 88.6176 69.0334 95.4114C57.8896 107.695 54.1067 123.925 60.9831 130.086C67.7851 136.247 83.6061 130.849 94.6942 118.509C105.838 106.169 109.621 90.0138 102.763 83.8344C99.7256 81.0797 94.8057 80.6332 89.3273 82.1408Z" fill="black"/>
<path d="M107.033 74.2859H116.929V107.695V134.683H106.399L106.213 107.695V86.3655L106.53 84.5974L107.033 74.2859Z" fill="black"/>
<path d="M285.706 133.436V81.5822H275.808V72.9647H285.706V66.5436C285.706 59.8059 287.156 54.9108 290.045 51.7654C292.953 48.6196 297.873 47.0378 304.732 47.0378H311.586V55.655H305.736C301.581 55.655 298.881 56.6601 297.481 58.7447C296.103 60.8294 295.396 63.7701 295.396 67.6789V72.9647H311.586V81.5822H295.469V133.436H285.706Z" fill="black"/>
<path d="M376.607 133.437V73.0208H386L386.446 82.4013C388.647 78.8836 391.478 76.2968 394.944 74.7331C398.41 73.151 402.326 72.3507 406.668 72.3507H409.761V81.5453H406.165C402.568 81.5453 399.491 82.1036 396.959 83.3134C394.444 84.5048 392.355 86.0865 390.789 88.1528C389.205 90.1629 388.089 92.5637 387.324 95.3184C386.558 98.0916 386.262 100.977 386.262 104.066V133.511H376.626V133.437H376.607Z" fill="black"/>
<path d="M426.437 80.2606C428.318 77.562 430.722 75.6076 433.499 74.2863C436.276 72.9647 439.423 72.3319 442.889 72.3319C447.101 72.3876 450.513 73.337 453.102 75.1051C455.694 76.8731 457.648 79.1998 458.972 82.0848C461.06 78.9951 463.576 76.6126 466.596 74.9191C469.612 73.2252 473.208 72.3319 477.309 72.3319C480.59 72.3319 483.421 72.8901 485.806 73.9697C488.191 75.105 490.091 76.6126 491.545 78.5671C492.999 80.5215 494.061 82.7921 494.753 85.3604C495.442 87.9476 495.757 90.7769 495.757 93.8478V133.418H485.995V98.8174C485.995 96.8072 485.864 94.7971 485.675 92.6568C485.491 90.5721 484.987 88.6365 484.221 86.9241C483.479 85.2302 482.34 83.7783 480.755 82.6991C479.248 81.5638 477.159 81.0613 474.589 81.0613C472.073 81.0613 469.931 81.6195 468.161 82.8293C466.388 84.0204 465.011 85.528 463.93 87.4824C462.922 89.3623 462.176 91.5026 461.657 93.7732C461.21 96.0442 460.968 98.296 460.968 100.567V133.474H451.201V98.7613C451.201 96.8818 451.144 94.8528 450.959 92.7125C450.828 90.6278 450.401 88.6922 449.636 86.9799C448.87 85.2863 447.809 83.8344 446.355 82.7733C444.904 81.6379 442.889 81.1354 440.242 81.1354C437.469 81.1354 435.211 81.7682 433.441 82.9596C431.614 84.1506 430.164 85.7327 429.098 87.6872C427.964 89.567 427.217 91.7074 426.825 94.0341C426.379 96.3604 426.194 98.631 426.194 100.772V133.548H416.616V73.151H426.006L426.437 80.2606Z" fill="black"/>
<path d="M524.584 81.0797C523.207 81.0797 521.811 81.2099 520.376 81.3963C518.995 81.5822 517.599 81.9545 516.218 82.5316C514.895 83.0898 513.702 83.9831 512.752 85.0442C511.802 86.1795 511.298 87.6314 511.186 89.4552C511.186 92.0424 512.137 93.978 514.075 95.2996C516.033 96.6209 518.549 97.5702 521.699 98.203C523.023 98.5196 524.4 98.7613 525.908 99.0778C527.419 99.3383 528.927 99.6361 530.439 99.8969C531.947 100.157 533.343 100.455 534.647 100.771C535.971 101.088 537.109 101.405 538.059 101.721C545.437 103.991 549.092 108.961 549.092 116.499C549.034 120.147 548.215 123.106 546.761 125.377C545.253 127.648 543.425 129.397 541.152 130.719C538.879 132.04 536.309 132.915 533.474 133.492C530.57 133.994 527.735 134.311 524.904 134.311C522.126 134.311 519.368 134.051 516.518 133.492C513.683 132.989 511.094 132.04 508.767 130.663C506.436 129.341 504.424 127.573 502.781 125.377C501.143 123.181 500.081 120.463 499.635 117.206H509.529C510.163 119.03 511.113 120.482 512.437 121.543C513.76 122.604 515.137 123.423 516.649 124.056C518.157 124.688 519.553 125.061 520.861 125.321C522.184 125.582 523.692 125.638 525.408 125.638C526.6 125.638 528.054 125.582 529.616 125.377C531.258 125.247 532.766 124.874 534.22 124.316C535.674 123.758 536.925 122.864 537.875 121.729C538.879 120.594 539.383 118.956 539.383 116.89C539.383 114.619 538.636 112.87 537.109 111.734C535.601 110.599 533.586 109.724 530.939 109.221C529.116 108.849 527.231 108.458 525.277 108.161C523.319 107.844 521.361 107.398 519.426 107.025C517.468 106.579 515.587 106.076 513.76 105.518C511.933 104.96 510.163 104.14 508.598 103.191C506.455 101.87 504.759 100.101 503.435 97.9053C502.112 95.7092 501.477 92.9918 501.477 89.7902C501.608 86.4585 502.428 83.6296 503.751 81.4893C505.074 79.3489 506.901 77.5247 509.044 76.1474C511.317 74.77 513.76 73.821 516.426 73.244C519.014 72.7415 521.773 72.4249 524.681 72.4249C530.847 72.4249 535.824 73.7465 539.475 76.4451C541.675 77.9527 543.445 79.7769 544.637 81.9173C545.83 84.0576 546.649 86.3282 546.911 88.7106H537.836C537.278 86.5146 535.824 84.6904 533.493 83.2946C531.278 81.8988 528.258 81.2099 524.584 81.0797Z" fill="black"/>
<path d="M340.506 134.683C334.393 134.683 328.973 133.306 324.315 130.588C319.58 127.815 315.929 124.111 313.283 119.328C310.636 114.544 309.313 109.128 309.313 103.098C309.313 96.9928 310.636 91.6513 313.283 86.9237C315.929 82.1962 319.637 78.5478 324.315 75.8492C328.973 73.1502 334.393 71.829 340.506 71.829C346.618 71.829 352.042 73.1502 356.7 75.8492C361.358 78.5478 365.086 82.1962 367.732 86.9237C370.379 91.6513 371.702 96.9928 371.702 103.098C371.702 109.203 370.379 114.619 367.732 119.328C365.086 124.111 361.378 127.815 356.7 130.588C352.042 133.306 346.618 134.683 340.506 134.683ZM340.506 131.984C344.664 131.984 348.314 130.793 351.465 128.392C354.615 126.01 357.073 122.603 358.9 118.267C360.67 113.93 361.601 108.83 361.601 103.042C361.601 97.2533 360.728 92.228 358.9 87.9472C357.131 83.6665 354.615 80.3904 351.465 78.0641C348.314 75.7374 344.664 74.6021 340.506 74.6021C336.409 74.6021 332.755 75.7374 329.604 78.0641C326.458 80.3904 323.942 83.6665 322.169 87.9472C320.399 92.228 319.468 97.2533 319.468 103.042C319.468 108.83 320.345 113.93 322.169 118.267C323.942 122.603 326.458 126.01 329.604 128.392C332.755 130.793 336.409 131.984 340.506 131.984Z" fill="black"/>
</g>
</g>
<defs>
<clipPath id="clip0_6_26">
<rect width="597" height="209" fill="white"/>
</clipPath>
<clipPath id="clip1_6_26">
<rect width="1134" height="637" fill="white" transform="translate(-268 -214)"/>
</clipPath>
</defs>
</svg>
